STARTFONT 2.1
FONT -Misc-UnifontPlusAquarius-Medium-R-SemiCondensed--16-120-75-75-C-60-ISO10646-1
SIZE 16 75 75
FONTBOUNDINGBOX 8 16 0 0
STARTPROPERTIES 20
FONTNAME_REGISTRY ""
FOUNDRY "Misc"
FAMILY_NAME "UnifontPlusAquariusBold"
WEIGHT_NAME "Medium"
SLANT "R"
SETWIDTH_NAME "SemiCondensed"
ADD_STYLE_NAME ""
PIXEL_SIZE 16
POINT_SIZE 120
RESOLUTION_X 75
RESOLUTION_Y 75
SPACING "C"
AVERAGE_WIDTH 60
CHARSET_REGISTRY "ISO10646"
CHARSET_ENCODING "1"
DEFAULT_CHAR 0
FONT_DESCENT 0
FONT_ASCENT 16
COPYRIGHT "Unknown"
ENDPROPERTIES
CHARS 190
STARTCHAR char32
ENCODING 32
SWIDTH 960 0
DWIDTH 8 0
BBX 8 16 0 0
BITMAP
00
00
00
00
00
00
00
00
00
00
00
00
00
00
00
00
ENDCHAR
STARTCHAR char33
ENCODING 33
SWIDTH 960 0
DWIDTH 8 0
BBX 8 16 0 0
BITMAP
00
00
00
00
18
18
18
18
18
18
18
00
18
18
00
00
ENDCHAR
STARTCHAR char34
ENCODING 34
SWIDTH 960 0
DWIDTH 8 0
BBX 8 16 0 0
BITMAP
00
00
66
66
66
66
00
00
00
00
00
00
00
00
00
00
ENDCHAR
STARTCHAR char35
ENCODING 35
SWIDTH 960 0
DWIDTH 8 0
BBX 8 16 0 0
BITMAP
00
00
00
00
36
36
36
FE
6C
6C
FE
D8
D8
D8
00
00
ENDCHAR
STARTCHAR char36
ENCODING 36
SWIDTH 960 0
DWIDTH 8 0
BBX 8 16 0 0
BITMAP
00
00
00
00
18
7E
DB
D8
78
1E
1B
DB
7E
18
00
00
ENDCHAR
STARTCHAR char37
ENCODING 37
SWIDTH 960 0
DWIDTH 8 0
BBX 8 16 0 0
BITMAP
00
00
00
00
73
DE
DE
7C
18
18
3E
7B
7B
CE
00
00
ENDCHAR
STARTCHAR char38
ENCODING 38
SWIDTH 960 0
DWIDTH 8 0
BBX 8 16 0 0
BITMAP
00
00
00
00
3C
66
66
3C
38
7B
CF
C6
CE
7B
00
00
ENDCHAR
STARTCHAR char39
ENCODING 39
SWIDTH 960 0
DWIDTH 8 0
BBX 8 16 0 0
BITMAP
00
00
18
18
18
18
00
00
00
00
00
00
00
00
00
00
ENDCHAR
STARTCHAR char40
ENCODING 40
SWIDTH 960 0
DWIDTH 8 0
BBX 8 16 0 0
BITMAP
00
00
00
0C
18
18
30
30
30
30
30
30
18
18
0C
00
ENDCHAR
STARTCHAR char41
ENCODING 41
SWIDTH 960 0
DWIDTH 8 0
BBX 8 16 0 0
BITMAP
00
00
00
60
30
30
18
18
18
18
18
18
30
30
60
00
ENDCHAR
STARTCHAR char42
ENCODING 42
SWIDTH 960 0
DWIDTH 8 0
BBX 8 16 0 0
BITMAP
00
00
00
00
00
00
18
DB
7E
3C
7E
DB
18
00
00
00
ENDCHAR
STARTCHAR char43
ENCODING 43
SWIDTH 960 0
DWIDTH 8 0
BBX 8 16 0 0
BITMAP
00
00
00
00
00
00
18
18
18
FF
18
18
18
00
00
00
ENDCHAR
STARTCHAR char44
ENCODING 44
SWIDTH 960 0
DWIDTH 8 0
BBX 8 16 0 0
BITMAP
00
00
00
00
00
00
00
00
00
00
00
00
38
18
18
30
ENDCHAR
STARTCHAR char45
ENCODING 45
SWIDTH 960 0
DWIDTH 8 0
BBX 8 16 0 0
BITMAP
00
00
00
00
00
00
00
00
00
7C
00
00
00
00
00
00
ENDCHAR
STARTCHAR char46
ENCODING 46
SWIDTH 960 0
DWIDTH 8 0
BBX 8 16 0 0
BITMAP
00
00
00
00
00
00
00
00
00
00
00
00
38
38
00
00
ENDCHAR
STARTCHAR char47
ENCODING 47
SWIDTH 960 0
DWIDTH 8 0
BBX 8 16 0 0
BITMAP
00
00
00
00
06
06
0C
18
18
30
30
60
C0
C0
00
00
ENDCHAR
STARTCHAR char48
ENCODING 48
SWIDTH 960 0
DWIDTH 8 0
BBX 8 16 0 0
BITMAP
00
00
00
00
38
6C
C6
CE
DE
F6
E6
C6
6C
38
00
00
ENDCHAR
STARTCHAR char49
ENCODING 49
SWIDTH 960 0
DWIDTH 8 0
BBX 8 16 0 0
BITMAP
00
00
00
00
18
38
78
18
18
18
18
18
18
7E
00
00
ENDCHAR
STARTCHAR char50
ENCODING 50
SWIDTH 960 0
DWIDTH 8 0
BBX 8 16 0 0
BITMAP
00
00
00
00
7C
C6
C6
06
1C
30
60
C0
C0
FE
00
00
ENDCHAR
STARTCHAR char51
ENCODING 51
SWIDTH 960 0
DWIDTH 8 0
BBX 8 16 0 0
BITMAP
00
00
00
00
7C
C6
C6
06
3C
06
06
C6
C6
7C
00
00
ENDCHAR
STARTCHAR char52
ENCODING 52
SWIDTH 960 0
DWIDTH 8 0
BBX 8 16 0 0
BITMAP
00
00
00
00
0C
1C
3C
6C
CC
CC
FE
0C
0C
0C
00
00
ENDCHAR
STARTCHAR char53
ENCODING 53
SWIDTH 960 0
DWIDTH 8 0
BBX 8 16 0 0
BITMAP
00
00
00
00
FE
C0
C0
C0
FC
06
06
06
C6
7C
00
00
ENDCHAR
STARTCHAR char54
ENCODING 54
SWIDTH 960 0
DWIDTH 8 0
BBX 8 16 0 0
BITMAP
00
00
00
00
3C
60
C0
C0
FC
C6
C6
C6
C6
7C
00
00
ENDCHAR
STARTCHAR char55
ENCODING 55
SWIDTH 960 0
DWIDTH 8 0
BBX 8 16 0 0
BITMAP
00
00
00
00
FE
06
06
0C
0C
0C
18
18
18
18
00
00
ENDCHAR
STARTCHAR char56
ENCODING 56
SWIDTH 960 0
DWIDTH 8 0
BBX 8 16 0 0
BITMAP
00
00
00
00
7C
C6
C6
C6
7C
C6
C6
C6
C6
7C
00
00
ENDCHAR
STARTCHAR char57
ENCODING 57
SWIDTH 960 0
DWIDTH 8 0
BBX 8 16 0 0
BITMAP
00
00
00
00
7C
C6
C6
C6
7E
06
06
06
0C
78
00
00
ENDCHAR
STARTCHAR char58
ENCODING 58
SWIDTH 960 0
DWIDTH 8 0
BBX 8 16 0 0
BITMAP
00
00
00
00
00
00
38
38
00
00
00
38
38
00
00
00
ENDCHAR
STARTCHAR char59
ENCODING 59
SWIDTH 960 0
DWIDTH 8 0
BBX 8 16 0 0
BITMAP
00
00
00
00
00
00
38
38
00
00
00
38
18
18
30
00
ENDCHAR
STARTCHAR char60
ENCODING 60
SWIDTH 960 0
DWIDTH 8 0
BBX 8 16 0 0
BITMAP
00
00
00
00
00
06
0C
18
30
60
30
18
0C
06
00
00
ENDCHAR
STARTCHAR char61
ENCODING 61
SWIDTH 960 0
DWIDTH 8 0
BBX 8 16 0 0
BITMAP
00
00
00
00
00
00
00
FE
00
00
00
FE
00
00
00
00
ENDCHAR
STARTCHAR char62
ENCODING 62
SWIDTH 960 0
DWIDTH 8 0
BBX 8 16 0 0
BITMAP
00
00
00
00
00
C0
60
30
18
0C
18
30
60
C0
00
00
ENDCHAR
STARTCHAR char63
ENCODING 63
SWIDTH 960 0
DWIDTH 8 0
BBX 8 16 0 0
BITMAP
00
00
00
00
7C
C6
C6
06
0C
18
18
00
18
18
00
00
ENDCHAR
STARTCHAR char64
ENCODING 64
SWIDTH 960 0
DWIDTH 8 0
BBX 8 16 0 0
BITMAP
00
00
00
00
3C
66
DE
FE
F6
F6
F6
DE
60
3E
00
00
ENDCHAR
STARTCHAR char65
ENCODING 65
SWIDTH 960 0
DWIDTH 8 0
BBX 8 16 0 0
BITMAP
00
00
00
00
38
6C
6C
C6
C6
FE
C6
C6
C6
C6
00
00
ENDCHAR
STARTCHAR char66
ENCODING 66
SWIDTH 960 0
DWIDTH 8 0
BBX 8 16 0 0
BITMAP
00
00
00
00
FC
C6
C6
C6
FC
C6
C6
C6
C6
FC
00
00
ENDCHAR
STARTCHAR char67
ENCODING 67
SWIDTH 960 0
DWIDTH 8 0
BBX 8 16 0 0
BITMAP
00
00
00
00
7C
C6
C6
C0
C0
C0
C0
C6
C6
7C
00
00
ENDCHAR
STARTCHAR char68
ENCODING 68
SWIDTH 960 0
DWIDTH 8 0
BBX 8 16 0 0
BITMAP
00
00
00
00
F8
CC
C6
C6
C6
C6
C6
C6
CC
F8
00
00
ENDCHAR
STARTCHAR char69
ENCODING 69
SWIDTH 960 0
DWIDTH 8 0
BBX 8 16 0 0
BITMAP
00
00
00
00
FE
C0
C0
C0
FC
C0
C0
C0
C0
FE
00
00
ENDCHAR
STARTCHAR char70
ENCODING 70
SWIDTH 960 0
DWIDTH 8 0
BBX 8 16 0 0
BITMAP
00
00
00
00
FE
C0
C0
C0
FC
C0
C0
C0
C0
C0
00
00
ENDCHAR
STARTCHAR char71
ENCODING 71
SWIDTH 960 0
DWIDTH 8 0
BBX 8 16 0 0
BITMAP
00
00
00
00
7C
C6
C6
C0
C0
DE
C6
C6
CE
7E
00
00
ENDCHAR
STARTCHAR char72
ENCODING 72
SWIDTH 960 0
DWIDTH 8 0
BBX 8 16 0 0
BITMAP
00
00
00
00
C6
C6
C6
C6
FE
C6
C6
C6
C6
C6
00
00
ENDCHAR
STARTCHAR char73
ENCODING 73
SWIDTH 960 0
DWIDTH 8 0
BBX 8 16 0 0
BITMAP
00
00
00
00
7E
18
18
18
18
18
18
18
18
7E
00
00
ENDCHAR
STARTCHAR char74
ENCODING 74
SWIDTH 960 0
DWIDTH 8 0
BBX 8 16 0 0
BITMAP
00
00
00
00
3F
0C
0C
0C
0C
0C
0C
CC
CC
78
00
00
ENDCHAR
STARTCHAR char75
ENCODING 75
SWIDTH 960 0
DWIDTH 8 0
BBX 8 16 0 0
BITMAP
00
00
00
00
C6
CC
D8
F0
E0
E0
F0
D8
CC
C6
00
00
ENDCHAR
STARTCHAR char76
ENCODING 76
SWIDTH 960 0
DWIDTH 8 0
BBX 8 16 0 0
BITMAP
00
00
00
00
C0
C0
C0
C0
C0
C0
C0
C0
C0
FE
00
00
ENDCHAR
STARTCHAR char77
ENCODING 77
SWIDTH 960 0
DWIDTH 8 0
BBX 8 16 0 0
BITMAP
00
00
00
00
C6
C6
EE
EE
FE
FE
C6
C6
C6
C6
00
00
ENDCHAR
STARTCHAR char78
ENCODING 78
SWIDTH 960 0
DWIDTH 8 0
BBX 8 16 0 0
BITMAP
00
00
00
00
C6
E6
E6
F6
F6
DE
DE
CE
CE
C6
00
00
ENDCHAR
STARTCHAR char79
ENCODING 79
SWIDTH 960 0
DWIDTH 8 0
BBX 8 16 0 0
BITMAP
00
00
00
00
7C
C6
C6
C6
C6
C6
C6
C6
C6
7C
00
00
ENDCHAR
STARTCHAR char80
ENCODING 80
SWIDTH 960 0
DWIDTH 8 0
BBX 8 16 0 0
BITMAP
00
00
00
00
FC
C6
C6
C6
FC
C0
C0
C0
C0
C0
00
00
ENDCHAR
STARTCHAR char81
ENCODING 81
SWIDTH 960 0
DWIDTH 8 0
BBX 8 16 0 0
BITMAP
00
00
00
00
7C
C6
C6
C6
C6
C6
C6
FE
EE
7C
07
00
ENDCHAR
STARTCHAR char82
ENCODING 82
SWIDTH 960 0
DWIDTH 8 0
BBX 8 16 0 0
BITMAP
00
00
00
00
FC
C6
C6
C6
FC
D8
CC
CC
C6
C6
00
00
ENDCHAR
STARTCHAR char83
ENCODING 83
SWIDTH 960 0
DWIDTH 8 0
BBX 8 16 0 0
BITMAP
00
00
00
00
7C
C6
C6
C0
70
1C
06
C6
C6
7C
00
00
ENDCHAR
STARTCHAR char84
ENCODING 84
SWIDTH 960 0
DWIDTH 8 0
BBX 8 16 0 0
BITMAP
00
00
00
00
FF
18
18
18
18
18
18
18
18
18
00
00
ENDCHAR
STARTCHAR char85
ENCODING 85
SWIDTH 960 0
DWIDTH 8 0
BBX 8 16 0 0
BITMAP
00
00
00
00
C6
C6
C6
C6
C6
C6
C6
C6
C6
7C
00
00
ENDCHAR
STARTCHAR char86
ENCODING 86
SWIDTH 960 0
DWIDTH 8 0
BBX 8 16 0 0
BITMAP
00
00
00
00
C3
C3
C3
66
66
66
3C
3C
18
18
00
00
ENDCHAR
STARTCHAR char87
ENCODING 87
SWIDTH 960 0
DWIDTH 8 0
BBX 8 16 0 0
BITMAP
00
00
00
00
C6
C6
C6
C6
FE
FE
EE
EE
C6
C6
00
00
ENDCHAR
STARTCHAR char88
ENCODING 88
SWIDTH 960 0
DWIDTH 8 0
BBX 8 16 0 0
BITMAP
00
00
00
00
C6
C6
6C
6C
38
38
6C
6C
C6
C6
00
00
ENDCHAR
STARTCHAR char89
ENCODING 89
SWIDTH 960 0
DWIDTH 8 0
BBX 8 16 0 0
BITMAP
00
00
00
00
C3
C3
66
66
3C
18
18
18
18
18
00
00
ENDCHAR
STARTCHAR char90
ENCODING 90
SWIDTH 960 0
DWIDTH 8 0
BBX 8 16 0 0
BITMAP
00
00
00
00
FE
06
06
0C
18
30
60
C0
C0
FE
00
00
ENDCHAR
STARTCHAR char91
ENCODING 91
SWIDTH 960 0
DWIDTH 8 0
BBX 8 16 0 0
BITMAP
00
00
00
1E
18
18
18
18
18
18
18
18
18
18
1E
00
ENDCHAR
STARTCHAR char92
ENCODING 92
SWIDTH 960 0
DWIDTH 8 0
BBX 8 16 0 0
BITMAP
00
00
00
00
C0
C0
60
30
30
18
18
0C
06
06
00
00
ENDCHAR
STARTCHAR char93
ENCODING 93
SWIDTH 960 0
DWIDTH 8 0
BBX 8 16 0 0
BITMAP
00
00
00
F0
30
30
30
30
30
30
30
30
30
30
F0
00
ENDCHAR
STARTCHAR char94
ENCODING 94
SWIDTH 960 0
DWIDTH 8 0
BBX 8 16 0 0
BITMAP
00
00
38
6C
C6
00
00
00
00
00
00
00
00
00
00
00
ENDCHAR
STARTCHAR char95
ENCODING 95
SWIDTH 960 0
DWIDTH 8 0
BBX 8 16 0 0
BITMAP
00
00
00
00
00
00
00
00
00
00
00
00
00
00
FF
00
ENDCHAR
STARTCHAR char96
ENCODING 96
SWIDTH 960 0
DWIDTH 8 0
BBX 8 16 0 0
BITMAP
00
60
30
18
00
00
00
00
00
00
00
00
00
00
00
00
ENDCHAR
STARTCHAR char97
ENCODING 97
SWIDTH 960 0
DWIDTH 8 0
BBX 8 16 0 0
BITMAP
00
00
00
00
00
00
7C
C6
06
7E
C6
C6
CE
7E
00
00
ENDCHAR
STARTCHAR char98
ENCODING 98
SWIDTH 960 0
DWIDTH 8 0
BBX 8 16 0 0
BITMAP
00
00
00
C0
C0
C0
FC
E6
C6
C6
C6
C6
E6
FC
00
00
ENDCHAR
STARTCHAR char99
ENCODING 99
SWIDTH 960 0
DWIDTH 8 0
BBX 8 16 0 0
BITMAP
00
00
00
00
00
00
7C
C6
C0
C0
C0
C0
C6
7C
00
00
ENDCHAR
STARTCHAR char100
ENCODING 100
SWIDTH 960 0
DWIDTH 8 0
BBX 8 16 0 0
BITMAP
00
00
00
06
06
06
7E
CE
C6
C6
C6
C6
CE
7E
00
00
ENDCHAR
STARTCHAR char101
ENCODING 101
SWIDTH 960 0
DWIDTH 8 0
BBX 8 16 0 0
BITMAP
00
00
00
00
00
00
7C
C6
C6
FE
C0
C0
C6
7C
00
00
ENDCHAR
STARTCHAR char102
ENCODING 102
SWIDTH 960 0
DWIDTH 8 0
BBX 8 16 0 0
BITMAP
00
00
00
1C
30
30
30
FC
30
30
30
30
30
30
00
00
ENDCHAR
STARTCHAR char103
ENCODING 103
SWIDTH 960 0
DWIDTH 8 0
BBX 8 16 0 0
BITMAP
00
00
00
00
00
06
7E
CC
CC
CC
78
60
7C
C6
C6
7C
ENDCHAR
STARTCHAR char104
ENCODING 104
SWIDTH 960 0
DWIDTH 8 0
BBX 8 16 0 0
BITMAP
00
00
00
C0
C0
C0
FC
E6
C6
C6
C6
C6
C6
C6
00
00
ENDCHAR
STARTCHAR char105
ENCODING 105
SWIDTH 960 0
DWIDTH 8 0
BBX 8 16 0 0
BITMAP
00
00
00
18
18
00
38
18
18
18
18
18
18
7E
00
00
ENDCHAR
STARTCHAR char106
ENCODING 106
SWIDTH 960 0
DWIDTH 8 0
BBX 8 16 0 0
BITMAP
00
00
00
0C
0C
00
1C
0C
0C
0C
0C
0C
0C
0C
D8
70
ENDCHAR
STARTCHAR char107
ENCODING 107
SWIDTH 960 0
DWIDTH 8 0
BBX 8 16 0 0
BITMAP
00
00
00
C0
C0
C0
CC
D8
F0
E0
F0
D8
CC
C6
00
00
ENDCHAR
STARTCHAR char108
ENCODING 108
SWIDTH 960 0
DWIDTH 8 0
BBX 8 16 0 0
BITMAP
00
00
00
38
18
18
18
18
18
18
18
18
18
7E
00
00
ENDCHAR
STARTCHAR char109
ENCODING 109
SWIDTH 960 0
DWIDTH 8 0
BBX 8 16 0 0
BITMAP
00
00
00
00
00
00
FE
DB
DB
DB
DB
DB
DB
DB
00
00
ENDCHAR
STARTCHAR char110
ENCODING 110
SWIDTH 960 0
DWIDTH 8 0
BBX 8 16 0 0
BITMAP
00
00
00
00
00
00
FC
E6
C6
C6
C6
C6
C6
C6
00
00
ENDCHAR
STARTCHAR char111
ENCODING 111
SWIDTH 960 0
DWIDTH 8 0
BBX 8 16 0 0
BITMAP
00
00
00
00
00
00
7C
C6
C6
C6
C6
C6
C6
7C
00
00
ENDCHAR
STARTCHAR char112
ENCODING 112
SWIDTH 960 0
DWIDTH 8 0
BBX 8 16 0 0
BITMAP
00
00
00
00
00
00
FC
E6
C6
C6
C6
C6
E6
FC
C0
C0
ENDCHAR
STARTCHAR char113
ENCODING 113
SWIDTH 960 0
DWIDTH 8 0
BBX 8 16 0 0
BITMAP
00
00
00
00
00
00
7E
CE
C6
C6
C6
C6
CE
7E
06
06
ENDCHAR
STARTCHAR char114
ENCODING 114
SWIDTH 960 0
DWIDTH 8 0
BBX 8 16 0 0
BITMAP
00
00
00
00
00
00
FC
E6
C6
C0
C0
C0
C0
C0
00
00
ENDCHAR
STARTCHAR char115
ENCODING 115
SWIDTH 960 0
DWIDTH 8 0
BBX 8 16 0 0
BITMAP
00
00
00
00
00
00
7C
C6
C0
70
1C
06
C6
7C
00
00
ENDCHAR
STARTCHAR char116
ENCODING 116
SWIDTH 960 0
DWIDTH 8 0
BBX 8 16 0 0
BITMAP
00
00
00
00
30
30
30
FC
30
30
30
30
30
1C
00
00
ENDCHAR
STARTCHAR char117
ENCODING 117
SWIDTH 960 0
DWIDTH 8 0
BBX 8 16 0 0
BITMAP
00
00
00
00
00
00
C6
C6
C6
C6
C6
C6
CE
7E
00
00
ENDCHAR
STARTCHAR char118
ENCODING 118
SWIDTH 960 0
DWIDTH 8 0
BBX 8 16 0 0
BITMAP
00
00
00
00
00
00
C6
C6
C6
6C
6C
6C
38
38
00
00
ENDCHAR
STARTCHAR char119
ENCODING 119
SWIDTH 960 0
DWIDTH 8 0
BBX 8 16 0 0
BITMAP
00
00
00
00
00
00
C3
DB
DB
DB
DB
DB
DB
7E
00
00
ENDCHAR
STARTCHAR char120
ENCODING 120
SWIDTH 960 0
DWIDTH 8 0
BBX 8 16 0 0
BITMAP
00
00
00
00
00
00
C6
C6
6C
38
38
6C
C6
C6
00
00
ENDCHAR
STARTCHAR char121
ENCODING 121
SWIDTH 960 0
DWIDTH 8 0
BBX 8 16 0 0
BITMAP
00
00
00
00
00
00
C6
C6
C6
C6
C6
6E
3E
06
06
7C
ENDCHAR
STARTCHAR char122
ENCODING 122
SWIDTH 960 0
DWIDTH 8 0
BBX 8 16 0 0
BITMAP
00
00
00
00
00
00
FE
06
0C
18
30
60
C0
FE
00
00
ENDCHAR
STARTCHAR char123
ENCODING 123
SWIDTH 960 0
DWIDTH 8 0
BBX 8 16 0 0
BITMAP
00
00
00
1C
30
30
18
18
30
60
30
18
18
30
30
1C
ENDCHAR
STARTCHAR char124
ENCODING 124
SWIDTH 960 0
DWIDTH 8 0
BBX 8 16 0 0
BITMAP
00
00
18
18
18
18
18
18
18
18
18
18
18
18
18
18
ENDCHAR
STARTCHAR char125
ENCODING 125
SWIDTH 960 0
DWIDTH 8 0
BBX 8 16 0 0
BITMAP
00
00
00
70
18
18
30
30
18
0C
18
30
30
18
18
70
ENDCHAR
STARTCHAR char126
ENCODING 126
SWIDTH 960 0
DWIDTH 8 0
BBX 8 16 0 0
BITMAP
00
00
00
73
DB
CE
00
00
00
00
00
00
00
00
00
00
ENDCHAR
STARTCHAR char65281
ENCODING 65281
SWIDTH 1920 0
DWIDTH 16 0
BBX 16 16 0 0
BITMAP
0000
0380
0380
0380
0380
0380
0380
0380
0380
0380
0380
0000
0000
0380
0380
0000
ENDCHAR
STARTCHAR char65282
ENCODING 65282
SWIDTH 1920 0
DWIDTH 16 0
BBX 16 16 0 0
BITMAP
0000
0000
0000
0000
0000
0EE0
0EE0
0EE0
0EE0
0EE0
0EE0
0000
0000
0000
0000
0000
ENDCHAR
STARTCHAR char65283
ENCODING 65283
SWIDTH 1920 0
DWIDTH 16 0
BBX 16 16 0 0
BITMAP
0000
0EE0
0EE0
0EE0
0EE0
3FF8
3FF8
0EE0
0EE0
3FF8
3FF8
0EE0
0EE0
0EE0
0EE0
0000
ENDCHAR
STARTCHAR char65284
ENCODING 65284
SWIDTH 1920 0
DWIDTH 16 0
BBX 16 16 0 0
BITMAP
0000
0380
0380
0FF8
0FF8
3B80
3B80
0FE0
0FE0
03B8
03B8
3FE0
3FE0
0380
0380
0000
ENDCHAR
STARTCHAR char65285
ENCODING 65285
SWIDTH 1920 0
DWIDTH 16 0
BBX 16 16 0 0
BITMAP
0000
3E00
3E00
3E38
3E38
00E0
00E0
0380
0380
0E00
0E00
38F8
38F8
00F8
00F8
0000
ENDCHAR
STARTCHAR char65286
ENCODING 65286
SWIDTH 1920 0
DWIDTH 16 0
BBX 16 16 0 0
BITMAP
0000
0E00
0E00
3B80
3B80
3B80
3B80
0E00
0E00
3BB8
3BB8
38E0
38E0
0FB8
0FB8
0000
ENDCHAR
STARTCHAR char65287
ENCODING 65287
SWIDTH 1920 0
DWIDTH 16 0
BBX 16 16 0 0
BITMAP
0000
0000
0000
0000
0000
01C0
01C0
01C0
01C0
0700
0700
0000
0000
0000
0000
0000
ENDCHAR
STARTCHAR char65288
ENCODING 65288
SWIDTH 1920 0
DWIDTH 16 0
BBX 16 16 0 0
BITMAP
0000
00E0
00E0
0380
0380
0E00
0E00
0E00
0E00
0E00
0E00
0380
0380
00E0
00E0
0000
ENDCHAR
STARTCHAR char65289
ENCODING 65289
SWIDTH 1920 0
DWIDTH 16 0
BBX 16 16 0 0
BITMAP
0000
0E00
0E00
0380
0380
00E0
00E0
00E0
00E0
00E0
00E0
0380
0380
0E00
0E00
0000
ENDCHAR
STARTCHAR char65290
ENCODING 65290
SWIDTH 1920 0
DWIDTH 16 0
BBX 16 16 0 0
BITMAP
0000
0380
0380
3BB8
3BB8
0FE0
0FE0
0380
0380
0FE0
0FE0
3BB8
3BB8
0380
0380
0000
ENDCHAR
STARTCHAR char65291
ENCODING 65291
SWIDTH 1920 0
DWIDTH 16 0
BBX 16 16 0 0
BITMAP
0000
0000
0000
0380
0380
0380
0380
3FF8
3FF8
0380
0380
0380
0380
0000
0000
0000
ENDCHAR
STARTCHAR char65292
ENCODING 65292
SWIDTH 1920 0
DWIDTH 16 0
BBX 16 16 0 0
BITMAP
0000
0000
0000
0000
0000
01C0
01C0
01C0
01C0
0700
0700
0000
0000
0000
0000
0000
ENDCHAR
STARTCHAR char65293
ENCODING 65293
SWIDTH 1920 0
DWIDTH 16 0
BBX 16 16 0 0
BITMAP
0000
0000
0000
0000
0000
0000
0000
3FF8
3FF8
0000
0000
0000
0000
0000
0000
0000
ENDCHAR
STARTCHAR char65294
ENCODING 65294
SWIDTH 1920 0
DWIDTH 16 0
BBX 16 16 0 0
BITMAP
0000
0000
0000
0000
0000
0000
0000
0380
0380
0000
0000
0000
0000
0000
0000
0000
ENDCHAR
STARTCHAR char65295
ENCODING 65295
SWIDTH 1920 0
DWIDTH 16 0
BBX 16 16 0 0
BITMAP
0000
0000
0000
0038
0038
00E0
00E0
0380
0380
0E00
0E00
3800
3800
0000
0000
0000
ENDCHAR
STARTCHAR char65296
ENCODING 65296
SWIDTH 1920 0
DWIDTH 16 0
BBX 16 16 0 0
BITMAP
0000
0FE0
0FE0
3838
3838
38F8
38F8
3BB8
3BB8
3E38
3E38
3838
3838
0FE0
0FE0
0000
ENDCHAR
STARTCHAR char65297
ENCODING 65297
SWIDTH 1920 0
DWIDTH 16 0
BBX 16 16 0 0
BITMAP
0000
0380
0380
0F80
0F80
0380
0380
0380
0380
0380
0380
0380
0380
0FE0
0FE0
0000
ENDCHAR
STARTCHAR char65298
ENCODING 65298
SWIDTH 1920 0
DWIDTH 16 0
BBX 16 16 0 0
BITMAP
0000
0FE0
0FE0
3838
3838
0038
0038
03E0
03E0
0E00
0E00
3800
3800
3FF8
3FF8
0000
ENDCHAR
STARTCHAR char65299
ENCODING 65299
SWIDTH 1920 0
DWIDTH 16 0
BBX 16 16 0 0
BITMAP
0000
3FF8
3FF8
0038
0038
00E0
00E0
03E0
03E0
0038
0038
3838
3838
0FE0
0FE0
0000
ENDCHAR
STARTCHAR char65300
ENCODING 65300
SWIDTH 1920 0
DWIDTH 16 0
BBX 16 16 0 0
BITMAP
0000
00E0
00E0
03E0
03E0
0EE0
0EE0
38E0
38E0
3FF8
3FF8
00E0
00E0
00E0
00E0
0000
ENDCHAR
STARTCHAR char65301
ENCODING 65301
SWIDTH 1920 0
DWIDTH 16 0
BBX 16 16 0 0
BITMAP
0000
3FF8
3FF8
3800
3800
3FE0
3FE0
0038
0038
0038
0038
3838
3838
0FE0
0FE0
0000
ENDCHAR
STARTCHAR char65302
ENCODING 65302
SWIDTH 1920 0
DWIDTH 16 0
BBX 16 16 0 0
BITMAP
0000
03F8
03F8
0E00
0E00
3800
3800
3FE0
3FE0
3838
3838
3838
3838
0FE0
0FE0
0000
ENDCHAR
STARTCHAR char65303
ENCODING 65303
SWIDTH 1920 0
DWIDTH 16 0
BBX 16 16 0 0
BITMAP
0000
3FF8
3FF8
0038
0038
00E0
00E0
0380
0380
0E00
0E00
0E00
0E00
0E00
0E00
0000
ENDCHAR
STARTCHAR char65304
ENCODING 65304
SWIDTH 1920 0
DWIDTH 16 0
BBX 16 16 0 0
BITMAP
0000
0FE0
0FE0
3838
3838
3838
3838
0FE0
0FE0
3838
3838
3838
3838
0FE0
0FE0
0000
ENDCHAR
STARTCHAR char65305
ENCODING 65305
SWIDTH 1920 0
DWIDTH 16 0
BBX 16 16 0 0
BITMAP
0000
0FE0
0FE0
3838
3838
3838
3838
0FF8
0FF8
0038
0038
00E0
00E0
3F80
3F80
0000
ENDCHAR
STARTCHAR char65306
ENCODING 65306
SWIDTH 1920 0
DWIDTH 16 0
BBX 16 16 0 0
BITMAP
0000
0000
0000
0000
0000
0380
0380
0000
0000
0380
0380
0000
0000
0000
0000
0000
ENDCHAR
STARTCHAR char65307
ENCODING 65307
SWIDTH 1920 0
DWIDTH 16 0
BBX 16 16 0 0
BITMAP
0000
0000
0000
01C0
01C0
0000
0000
01C0
01C0
01C0
01C0
0700
0700
0000
0000
0000
ENDCHAR
STARTCHAR char65308
ENCODING 65308
SWIDTH 1920 0
DWIDTH 16 0
BBX 16 16 0 0
BITMAP
0000
0070
0070
01C0
01C0
0700
0700
1C00
1C00
0700
0700
01C0
01C0
0070
0070
0000
ENDCHAR
STARTCHAR char65309
ENCODING 65309
SWIDTH 1920 0
DWIDTH 16 0
BBX 16 16 0 0
BITMAP
0000
0000
0000
0000
0000
3FF8
3FF8
0000
0000
3FF8
3FF8
0000
0000
0000
0000
0000
ENDCHAR
STARTCHAR char65310
ENCODING 65310
SWIDTH 1920 0
DWIDTH 16 0
BBX 16 16 0 0
BITMAP
0000
1C00
1C00
0700
0700
01C0
01C0
0070
0070
01C0
01C0
0700
0700
1C00
1C00
0000
ENDCHAR
STARTCHAR char65311
ENCODING 65311
SWIDTH 1920 0
DWIDTH 16 0
BBX 16 16 0 0
BITMAP
0000
0FE0
0FE0
3838
3838
00E0
00E0
0380
0380
0380
0380
0000
0000
0380
0380
0000
ENDCHAR
STARTCHAR char65312
ENCODING 65312
SWIDTH 1920 0
DWIDTH 16 0
BBX 16 16 0 0
BITMAP
0000
0FE0
0FE0
3838
3838
3BB8
3BB8
3BF8
3BF8
3BE0
3BE0
3800
3800
0FF8
0FF8
0000
ENDCHAR
STARTCHAR char65313
ENCODING 65313
SWIDTH 1920 0
DWIDTH 16 0
BBX 16 16 0 0
BITMAP
0000
0380
0380
0EE0
0EE0
3838
3838
3838
3838
3FF8
3FF8
3838
3838
3838
3838
0000
ENDCHAR
STARTCHAR char65314
ENCODING 65314
SWIDTH 1920 0
DWIDTH 16 0
BBX 16 16 0 0
BITMAP
0000
3FE0
3FE0
3838
3838
3838
3838
3FE0
3FE0
3838
3838
3838
3838
3FE0
3FE0
0000
ENDCHAR
STARTCHAR char65315
ENCODING 65315
SWIDTH 1920 0
DWIDTH 16 0
BBX 16 16 0 0
BITMAP
0000
0FE0
0FE0
3838
3838
3800
3800
3800
3800
3800
3800
3838
3838
0FE0
0FE0
0000
ENDCHAR
STARTCHAR char65316
ENCODING 65316
SWIDTH 1920 0
DWIDTH 16 0
BBX 16 16 0 0
BITMAP
0000
3FE0
3FE0
3838
3838
3838
3838
3838
3838
3838
3838
3838
3838
3FE0
3FE0
0000
ENDCHAR
STARTCHAR char65317
ENCODING 65317
SWIDTH 1920 0
DWIDTH 16 0
BBX 16 16 0 0
BITMAP
0000
3FF8
3FF8
3800
3800
3800
3800
3FE0
3FE0
3800
3800
3800
3800
3FF8
3FF8
0000
ENDCHAR
STARTCHAR char65318
ENCODING 65318
SWIDTH 1920 0
DWIDTH 16 0
BBX 16 16 0 0
BITMAP
0000
3FF8
3FF8
3800
3800
3800
3800
3FE0
3FE0
3800
3800
3800
3800
3800
3800
0000
ENDCHAR
STARTCHAR char65319
ENCODING 65319
SWIDTH 1920 0
DWIDTH 16 0
BBX 16 16 0 0
BITMAP
0000
0FF8
0FF8
3800
3800
3800
3800
3800
3800
38F8
38F8
3838
3838
0FF8
0FF8
0000
ENDCHAR
STARTCHAR char65320
ENCODING 65320
SWIDTH 1920 0
DWIDTH 16 0
BBX 16 16 0 0
BITMAP
0000
3838
3838
3838
3838
3838
3838
3FF8
3FF8
3838
3838
3838
3838
3838
3838
0000
ENDCHAR
STARTCHAR char65321
ENCODING 65321
SWIDTH 1920 0
DWIDTH 16 0
BBX 16 16 0 0
BITMAP
0000
0FE0
0FE0
0380
0380
0380
0380
0380
0380
0380
0380
0380
0380
0FE0
0FE0
0000
ENDCHAR
STARTCHAR char65322
ENCODING 65322
SWIDTH 1920 0
DWIDTH 16 0
BBX 16 16 0 0
BITMAP
0000
0038
0038
0038
0038
0038
0038
0038
0038
0038
0038
3838
3838
0FE0
0FE0
0000
ENDCHAR
STARTCHAR char65323
ENCODING 65323
SWIDTH 1920 0
DWIDTH 16 0
BBX 16 16 0 0
BITMAP
0000
3838
3838
38E0
38E0
3B80
3B80
3E00
3E00
3B80
3B80
38E0
38E0
3838
3838
0000
ENDCHAR
STARTCHAR char65324
ENCODING 65324
SWIDTH 1920 0
DWIDTH 16 0
BBX 16 16 0 0
BITMAP
0000
3800
3800
3800
3800
3800
3800
3800
3800
3800
3800
3800
3800
3FF8
3FF8
0000
ENDCHAR
STARTCHAR char65325
ENCODING 65325
SWIDTH 1920 0
DWIDTH 16 0
BBX 16 16 0 0
BITMAP
0000
3838
3838
3EF8
3EF8
3BB8
3BB8
3BB8
3BB8
3838
3838
3838
3838
3838
3838
0000
ENDCHAR
STARTCHAR char65326
ENCODING 65326
SWIDTH 1920 0
DWIDTH 16 0
BBX 16 16 0 0
BITMAP
0000
3838
3838
3838
3838
3E38
3E38
3BB8
3BB8
38F8
38F8
3838
3838
3838
3838
0000
ENDCHAR
STARTCHAR char65327
ENCODING 65327
SWIDTH 1920 0
DWIDTH 16 0
BBX 16 16 0 0
BITMAP
0000
0FE0
0FE0
3838
3838
3838
3838
3838
3838
3838
3838
3838
3838
0FE0
0FE0
0000
ENDCHAR
STARTCHAR char65328
ENCODING 65328
SWIDTH 1920 0
DWIDTH 16 0
BBX 16 16 0 0
BITMAP
0000
3FE0
3FE0
3838
3838
3838
3838
3FE0
3FE0
3800
3800
3800
3800
3800
3800
0000
ENDCHAR
STARTCHAR char65329
ENCODING 65329
SWIDTH 1920 0
DWIDTH 16 0
BBX 16 16 0 0
BITMAP
0000
0FE0
0FE0
3838
3838
3838
3838
3838
3838
3BB8
3BB8
38E0
38E0
0FB8
0FB8
0000
ENDCHAR
STARTCHAR char65330
ENCODING 65330
SWIDTH 1920 0
DWIDTH 16 0
BBX 16 16 0 0
BITMAP
0000
3FE0
3FE0
3838
3838
3838
3838
3FE0
3FE0
3B80
3B80
38E0
38E0
3838
3838
0000
ENDCHAR
STARTCHAR char65331
ENCODING 65331
SWIDTH 1920 0
DWIDTH 16 0
BBX 16 16 0 0
BITMAP
0000
0FE0
0FE0
3838
3838
3800
3800
0FE0
0FE0
0038
0038
3838
3838
0FE0
0FE0
0000
ENDCHAR
STARTCHAR char65332
ENCODING 65332
SWIDTH 1920 0
DWIDTH 16 0
BBX 16 16 0 0
BITMAP
0000
3FF8
3FF8
0380
0380
0380
0380
0380
0380
0380
0380
0380
0380
0380
0380
0000
ENDCHAR
STARTCHAR char65333
ENCODING 65333
SWIDTH 1920 0
DWIDTH 16 0
BBX 16 16 0 0
BITMAP
0000
3838
3838
3838
3838
3838
3838
3838
3838
3838
3838
3838
3838
0FE0
0FE0
0000
ENDCHAR
STARTCHAR char65334
ENCODING 65334
SWIDTH 1920 0
DWIDTH 16 0
BBX 16 16 0 0
BITMAP
0000
3838
3838
3838
3838
3838
3838
3838
3838
3838
3838
0EE0
0EE0
0380
0380
0000
ENDCHAR
STARTCHAR char65335
ENCODING 65335
SWIDTH 1920 0
DWIDTH 16 0
BBX 16 16 0 0
BITMAP
0000
3838
3838
3838
3838
3838
3838
3BB8
3BB8
3BB8
3BB8
3EF8
3EF8
3838
3838
0000
ENDCHAR
STARTCHAR char65336
ENCODING 65336
SWIDTH 1920 0
DWIDTH 16 0
BBX 16 16 0 0
BITMAP
0000
3838
3838
3838
3838
0EE0
0EE0
0380
0380
0EE0
0EE0
3838
3838
3838
3838
0000
ENDCHAR
STARTCHAR char65337
ENCODING 65337
SWIDTH 1920 0
DWIDTH 16 0
BBX 16 16 0 0
BITMAP
0000
3838
3838
3838
3838
0EE0
0EE0
0380
0380
0380
0380
0380
0380
0380
0380
0000
ENDCHAR
STARTCHAR char65338
ENCODING 65338
SWIDTH 1920 0
DWIDTH 16 0
BBX 16 16 0 0
BITMAP
0000
3FF8
3FF8
0038
0038
00E0
00E0
0380
0380
0E00
0E00
3800
3800
3FF8
3FF8
0000
ENDCHAR
STARTCHAR char65339
ENCODING 65339
SWIDTH 1920 0
DWIDTH 16 0
BBX 16 16 0 0
BITMAP
0000
3FF8
3FF8
3E00
3E00
3E00
3E00
3E00
3E00
3E00
3E00
3E00
3E00
3FF8
3FF8
0000
ENDCHAR
STARTCHAR char65340
ENCODING 65340
SWIDTH 1920 0
DWIDTH 16 0
BBX 16 16 0 0
BITMAP
0000
0000
0000
3800
3800
0E00
0E00
0380
0380
00E0
00E0
0038
0038
0000
0000
0000
ENDCHAR
STARTCHAR char65341
ENCODING 65341
SWIDTH 1920 0
DWIDTH 16 0
BBX 16 16 0 0
BITMAP
0000
3FF8
3FF8
00F8
00F8
00F8
00F8
00F8
00F8
00F8
00F8
00F8
00F8
3FF8
3FF8
0000
ENDCHAR
STARTCHAR char65342
ENCODING 65342
SWIDTH 1920 0
DWIDTH 16 0
BBX 16 16 0 0
BITMAP
0000
0000
0000
0000
0000
0380
0380
0EE0
0EE0
3838
3838
0000
0000
0000
0000
0000
ENDCHAR
STARTCHAR char65343
ENCODING 65343
SWIDTH 1920 0
DWIDTH 16 0
BBX 16 16 0 0
BITMAP
0000
0000
0000
0000
0000
0000
0000
3FF8
3FF8
0000
0000
0000
0000
0000
0000
0000
ENDCHAR
STARTCHAR char65344
ENCODING 65344
SWIDTH 1920 0
DWIDTH 16 0
BBX 16 16 0 0
BITMAP
0000
0000
0000
0000
0000
0700
0700
0700
0700
01C0
01C0
0000
0000
0000
0000
0000
ENDCHAR
STARTCHAR char65345
ENCODING 65345
SWIDTH 1920 0
DWIDTH 16 0
BBX 16 16 0 0
BITMAP
0000
0000
0000
0FB8
0FB8
38F8
38F8
3838
3838
38F8
38F8
0FB8
0FB8
0000
0000
0000
ENDCHAR
STARTCHAR char65346
ENCODING 65346
SWIDTH 1920 0
DWIDTH 16 0
BBX 16 16 0 0
BITMAP
0000
3800
3800
3800
3800
3BE0
3BE0
3E38
3E38
3838
3838
3E38
3E38
3BE0
3BE0
0000
ENDCHAR
STARTCHAR char65347
ENCODING 65347
SWIDTH 1920 0
DWIDTH 16 0
BBX 16 16 0 0
BITMAP
0000
0000
0000
07F0
07F0
1C00
1C00
1C00
1C00
1C00
1C00
07F0
07F0
0000
0000
0000
ENDCHAR
STARTCHAR char65348
ENCODING 65348
SWIDTH 1920 0
DWIDTH 16 0
BBX 16 16 0 0
BITMAP
0000
0038
0038
0038
0038
0FB8
0FB8
38F8
38F8
3838
3838
38F8
38F8
0FB8
0FB8
0000
ENDCHAR
STARTCHAR char65349
ENCODING 65349
SWIDTH 1920 0
DWIDTH 16 0
BBX 16 16 0 0
BITMAP
0000
0000
0000
0FE0
0FE0
3838
3838
3FF8
3FF8
3800
3800
0FE0
0FE0
0000
0000
0000
ENDCHAR
STARTCHAR char65350
ENCODING 65350
SWIDTH 1920 0
DWIDTH 16 0
BBX 16 16 0 0
BITMAP
0000
00E0
00E0
0380
0380
0380
0380
0FE0
0FE0
0380
0380
0380
0380
0380
0380
0000
ENDCHAR
STARTCHAR char65351
ENCODING 65351
SWIDTH 1920 0
DWIDTH 16 0
BBX 16 16 0 0
BITMAP
0000
0000
0FB8
0FB8
38F8
38F8
3838
3838
0FF8
0FF8
0038
0038
0FE0
0FE0
0000
0000
ENDCHAR
STARTCHAR char65352
ENCODING 65352
SWIDTH 1920 0
DWIDTH 16 0
BBX 16 16 0 0
BITMAP
0000
3800
3800
3800
3800
3FE0
3FE0
3838
3838
3838
3838
3838
3838
3838
3838
0000
ENDCHAR
STARTCHAR char65353
ENCODING 65353
SWIDTH 1920 0
DWIDTH 16 0
BBX 16 16 0 0
BITMAP
0000
0380
0380
0000
0000
0F80
0F80
0380
0380
0380
0380
0380
0380
0FE0
0FE0
0000
ENDCHAR
STARTCHAR char65354
ENCODING 65354
SWIDTH 1920 0
DWIDTH 16 0
BBX 16 16 0 0
BITMAP
00E0
00E0
0000
0000
00E0
00E0
00E0
00E0
00E0
00E0
00E0
00E0
00E0
00E0
0F80
0F80
ENDCHAR
STARTCHAR char65355
ENCODING 65355
SWIDTH 1920 0
DWIDTH 16 0
BBX 16 16 0 0
BITMAP
0000
3800
3800
3800
3800
38E0
38E0
3B80
3B80
3F80
3F80
38E0
38E0
3838
3838
0000
ENDCHAR
STARTCHAR char65356
ENCODING 65356
SWIDTH 1920 0
DWIDTH 16 0
BBX 16 16 0 0
BITMAP
0000
0F80
0F80
0380
0380
0380
0380
0380
0380
0380
0380
0380
0380
0FE0
0FE0
0000
ENDCHAR
STARTCHAR char65357
ENCODING 65357
SWIDTH 1920 0
DWIDTH 16 0
BBX 16 16 0 0
BITMAP
0000
0000
0000
7DF0
7DF0
771C
771C
771C
771C
771C
771C
771C
771C
0000
0000
0000
ENDCHAR
STARTCHAR char65358
ENCODING 65358
SWIDTH 1920 0
DWIDTH 16 0
BBX 16 16 0 0
BITMAP
0000
0000
0000
3FE0
3FE0
3838
3838
3838
3838
3838
3838
3838
3838
0000
0000
0000
ENDCHAR
STARTCHAR char65359
ENCODING 65359
SWIDTH 1920 0
DWIDTH 16 0
BBX 16 16 0 0
BITMAP
0000
0000
0000
0FE0
0FE0
3838
3838
3838
3838
3838
3838
0FE0
0FE0
0000
0000
0000
ENDCHAR
STARTCHAR char65360
ENCODING 65360
SWIDTH 1920 0
DWIDTH 16 0
BBX 16 16 0 0
BITMAP
0000
0000
3BE0
3BE0
3E38
3E38
3838
3838
3E38
3E38
3BE0
3BE0
3800
3800
0000
0000
ENDCHAR
STARTCHAR char65361
ENCODING 65361
SWIDTH 1920 0
DWIDTH 16 0
BBX 16 16 0 0
BITMAP
0000
0000
1F70
1F70
71F0
71F0
7070
7070
71F0
71F0
1F70
1F70
007C
007C
0000
0000
ENDCHAR
STARTCHAR char65362
ENCODING 65362
SWIDTH 1920 0
DWIDTH 16 0
BBX 16 16 0 0
BITMAP
0000
0000
0000
1DF0
1DF0
1F00
1F00
1C00
1C00
1C00
1C00
1C00
1C00
0000
0000
0000
ENDCHAR
STARTCHAR char65363
ENCODING 65363
SWIDTH 1920 0
DWIDTH 16 0
BBX 16 16 0 0
BITMAP
0000
0000
0000
0FF8
0FF8
3800
3800
0FE0
0FE0
0038
0038
3FE0
3FE0
0000
0000
0000
ENDCHAR
STARTCHAR char65364
ENCODING 65364
SWIDTH 1920 0
DWIDTH 16 0
BBX 16 16 0 0
BITMAP
0000
0380
0380
0380
0380
3FF8
3FF8
0380
0380
0380
0380
0380
0380
0380
0380
0000
ENDCHAR
STARTCHAR char65365
ENCODING 65365
SWIDTH 1920 0
DWIDTH 16 0
BBX 16 16 0 0
BITMAP
0000
0000
0000
3838
3838
3838
3838
3838
3838
3838
3838
0FF8
0FF8
0000
0000
0000
ENDCHAR
STARTCHAR char65366
ENCODING 65366
SWIDTH 1920 0
DWIDTH 16 0
BBX 16 16 0 0
BITMAP
0000
0000
0000
3838
3838
3838
3838
0EE0
0EE0
0EE0
0EE0
0380
0380
0000
0000
0000
ENDCHAR
STARTCHAR char65367
ENCODING 65367
SWIDTH 1920 0
DWIDTH 16 0
BBX 16 16 0 0
BITMAP
0000
0000
0000
771C
771C
771C
771C
771C
771C
771C
771C
1DF0
1DF0
0000
0000
0000
ENDCHAR
STARTCHAR char65368
ENCODING 65368
SWIDTH 1920 0
DWIDTH 16 0
BBX 16 16 0 0
BITMAP
0000
0000
0000
3838
3838
0EE0
0EE0
0380
0380
0EE0
0EE0
3838
3838
0000
0000
0000
ENDCHAR
STARTCHAR char65369
ENCODING 65369
SWIDTH 1920 0
DWIDTH 16 0
BBX 16 16 0 0
BITMAP
0000
0000
1C70
1C70
1C70
1C70
1C70
1C70
1FF0
1FF0
0070
0070
1FC0
1FC0
0000
0000
ENDCHAR
STARTCHAR char65370
ENCODING 65370
SWIDTH 1920 0
DWIDTH 16 0
BBX 16 16 0 0
BITMAP
0000
0000
0000
3FF8
3FF8
00E0
00E0
0380
0380
0E00
0E00
3FF8
3FF8
0000
0000
0000
ENDCHAR
STARTCHAR char65371
ENCODING 65371
SWIDTH 1920 0
DWIDTH 16 0
BBX 16 16 0 0
BITMAP
0000
01F0
01F0
0700
0700
0700
0700
1C00
1C00
0700
0700
0700
0700
01F0
01F0
0000
ENDCHAR
STARTCHAR char65372
ENCODING 65372
SWIDTH 1920 0
DWIDTH 16 0
BBX 16 16 0 0
BITMAP
0000
0380
0380
0380
0380
0380
0380
0000
0000
0380
0380
0380
0380
0380
0380
0000
ENDCHAR
STARTCHAR char65373
ENCODING 65373
SWIDTH 1920 0
DWIDTH 16 0
BBX 16 16 0 0
BITMAP
0000
1F00
1F00
01C0
01C0
01C0
01C0
0070
0070
01C0
01C0
01C0
01C0
1F00
1F00
0000
ENDCHAR
STARTCHAR char65374
ENCODING 65374
SWIDTH 1920 0
DWIDTH 16 0
BBX 16 16 0 0
BITMAP
0000
0000
0000
0000
0000
0038
0038
0FE0
0FE0
3800
3800
0000
0000
0000
0000
0000
ENDCHAR
STARTCHAR char65375
ENCODING 65375
SWIDTH 1920 0
DWIDTH 16 0
BBX 16 16 0 0
BITMAP
0000
0000
0000
0000
0000
0038
0038
0FE0
0FE0
3800
3800
0000
0000
0000
0000
0000
ENDCHAR
ENDFONT
